<svg xmlns="http://www.w3.org/2000/svg" xmlns:xlink="http://www.w3.org/1999/xlink" viewBox="0 0 251.89453125 72"><path fill="red" stroke="black" d="M8.44-34.35Q7.66-34.35 7.33-33.70Q7-33.05 7.33-32.43Q7.66-31.82 8.44-31.89L20.88-32.62L20.88-2.39L12.09-3.09Q11.32-3.13 11-2.50Q10.69-1.86 11-1.21Q11.32-0.56 12.09-0.56L20.88-0.56L20.88 7.77Q20.88 11.29 24.33 13.82Q27.77 16.35 32.55 16.35Q34.56 16.35 36.14 16.03Q37.72 15.71 38.64 15.38Q39.55 15.05 40.46 14.24Q41.38 13.43 41.70 13.03Q42.01 12.62 42.79 11.60Q43.31 10.83 43.05 10.11Q42.79 9.39 42.17 9.30Q41.55 9.21 40.96 9.77Q40.71 10.05 40.06 10.90Q39.41 11.74 39.01 12.09Q38.60 12.45 37.76 12.96Q36.91 13.46 35.63 13.68Q34.35 13.89 32.55 13.89Q28.62 13.89 26.02 12.04Q23.41 10.20 23.41 7.07L23.41-0.56L38.39-0.56Q39.16-0.56 39.48-1.21Q39.80-1.86 39.48-2.50Q39.16-3.13 38.39-3.09L23.41-2.39L23.41-32.62L41.91-31.89Q42.68-31.85 43-32.47Q43.31-33.08 43-33.71Q42.68-34.35 41.91-34.35L8.44-34.35M57.45-16.28Q57.45-8.33 61.86-3.30Q66.27 1.72 74 1.72Q78.79 1.72 82.07-0.02Q85.36-1.76 88.31-5.62L88.31 16.07Q88.31 16.88 88.79 17.12Q89.26 17.37 89.58 17.37Q89.89 17.37 90.37 17.12Q90.84 16.88 90.84 16.07L90.84-24.64Q90.84-28.79 93.45-32.27Q93.76-32.66 93.76-33.01Q93.76-33.47 93.30-33.86Q92.81-34.28 92.32-34.28Q92.04-34.28 91.79-34.17Q91.55-34.03 91.41-33.71Q89.05-30.83 88.38-26.79Q85.50-30.80 82.28-32.64Q79.07-34.49 74.14-34.49Q66.34-34.49 61.89-29.50Q57.45-24.50 57.45-16.28M59.94-16.28Q59.94-23.31 63.63-27.60Q67.32-31.89 74.14-31.89Q80.79-31.89 84.48-27.56Q88.17-23.24 88.17-16.28Q88.17-9.25 84.43-5.06Q80.68-0.88 74.14-0.88Q67.54-0.88 63.74-5.08Q59.94-9.28 59.94-16.28M106.66-42.40Q106.66-41.62 107.12-41.40Q107.58-41.17 107.89-41.17Q108.21-41.17 108.67-41.40Q109.13-41.62 109.13-42.40Q109.13-44.54 111.23-46.16Q113.34-47.78 116.26-48.52Q119.18-49.25 122.20-49.25Q126.28-49.25 129.64-48.11Q133-46.97 135.16-44.44Q137.32-41.91 137.32-38.39L137.25-27.35Q134.23-31.32 131.13-33.01Q128.04-34.70 123.22-34.70Q115.56-34.70 111.11-29.62Q106.66-24.54 106.66-16.42Q106.66-8.33 111.06-3.23Q115.45 1.86 123.22 1.86Q127.79 1.86 131.48-0.09Q135.18-2.04 137.32-5.77Q137.95-1.93 140.34 1.23Q140.77 1.69 141.26 1.69Q141.43 1.69 141.87 1.58Q142.31 1.48 142.51 1.04Q142.70 0.60 142.70 0.35Q142.70 0 142.45-0.35Q139.85-3.55 139.85-7.95Q139.85-7.95 139.85-7.98Q139.85-7.98 139.85-8.02Q139.85-8.02 139.85-8.05Q139.85-8.05 139.85-8.05L139.85-8.09Q139.85-8.09 139.85-8.09L139.85-38.39Q139.85-41.62 138.41-44.23Q136.97-46.83 134.49-48.43Q132.01-50.03 128.88-50.87Q125.75-51.71 122.20-51.71Q118.30-51.71 114.82-50.68Q111.34-49.64 109-47.46Q106.66-45.28 106.66-42.40M109.20-16.42Q109.20-23.31 112.89-27.72Q116.58-32.13 123.22-32.13Q129.83-32.13 133.51-27.79Q137.18-23.45 137.18-16.42Q137.18-9.60 133.51-5.13Q129.83-0.67 123.22-0.67Q116.68-0.67 112.94-4.90Q109.20-9.14 109.20-16.42M157.04-42.40Q157.04-41.62 157.50-41.40Q157.96-41.17 158.27-41.17Q158.59-41.17 159.05-41.40Q159.50-41.62 159.50-42.40Q159.50-44.54 161.61-46.16Q163.72-47.78 166.64-48.52Q169.56-49.25 172.58-49.25Q176.66-49.25 180.02-48.11Q183.38-46.97 185.54-44.44Q187.70-41.91 187.70-38.39L187.63-27.35Q184.61-31.32 181.51-33.01Q178.42-34.70 173.60-34.70Q165.94-34.70 161.49-29.62Q157.04-24.54 157.04-16.42Q157.04-8.33 161.44-3.23Q165.83 1.86 173.60 1.86Q178.17 1.86 181.86-0.09Q185.55-2.04 187.70-5.77Q188.33-1.93 190.72 1.23Q191.14 1.69 191.64 1.69Q191.81 1.69 192.25 1.58Q192.69 1.48 192.88 1.04Q193.08 0.60 193.08 0.35Q193.08 0 192.83-0.35Q190.23-3.55 190.23-7.95Q190.23-7.95 190.23-7.98Q190.23-7.98 190.23-8.02Q190.23-8.02 190.23-8.05Q190.23-8.05 190.23-8.05L190.23-8.09Q190.23-8.09 190.23-8.09L190.23-38.39Q190.23-41.62 188.79-44.23Q187.35-46.83 184.87-48.43Q182.39-50.03 179.26-50.87Q176.13-51.71 172.58-51.71Q168.68-51.71 165.20-50.68Q161.72-49.64 159.38-47.46Q157.04-45.28 157.04-42.40M159.57-16.42Q159.57-23.31 163.27-27.72Q166.96-32.13 173.60-32.13Q180.21-32.13 183.88-27.79Q187.56-23.45 187.56-16.42Q187.56-9.60 183.88-5.13Q180.21-0.67 173.60-0.67Q167.06-0.67 163.32-4.90Q159.57-9.14 159.57-16.42M208.86-27.81Q208.72-27.35 208.88-26.96Q209.04-26.58 209.37-26.38Q209.71-26.19 210.09-26.16Q210.48-26.12 210.83-26.38Q211.18-26.65 211.32-27.14Q211.85-28.79 214.59-30.01Q217.34-31.22 220.43-31.75Q223.52-32.27 226.20-32.27Q229.08-32.24 231.79-31.78Q234.49-31.32 236.81-30.43Q239.13-29.53 240.52-28.04Q241.91-26.54 241.91-24.64Q241.91-23.34 241.51-22.31Q241.10-21.27 240.47-20.55Q239.84-19.83 238.66-19.30Q237.48-18.77 236.41-18.47Q235.34-18.18 233.53-17.96Q231.71-17.75 230.33-17.65Q228.94-17.54 226.65-17.44Q224.30-17.30 222.80-17.19Q221.31-17.09 219.32-16.80Q217.34-16.52 216.09-16.14Q214.84-15.75 213.47-15.06Q212.10-14.38 211.34-13.48Q210.59-12.59 210.08-11.27Q209.57-9.95 209.57-8.30Q209.57-5.62 210.92-3.60Q212.27-1.58 214.68-0.40Q217.09 0.77 220.11 1.37Q223.14 1.97 226.72 2Q229.57 1.97 232.35 1.51Q235.13 1.05 237.52 0.19Q239.91-0.67 241.58-2.09Q243.25-3.52 243.70-5.27Q243.84-6.05 243.28-6.54Q242.72-7.03 242.03-6.80Q241.35-6.57 241.10-5.62Q240.43-3.30 236.23-1.99Q232.03-0.67 226.72-0.49Q220.01-0.56 216.05-2.46Q212.10-4.36 212.10-8.30Q212.10-9.67 212.57-10.71Q213.05-11.74 214.08-12.43Q215.12-13.11 216.28-13.57Q217.44-14.03 219.29-14.27Q221.13-14.52 222.73-14.64Q224.33-14.77 226.72-14.84Q228.76-14.94 230.26-15.06Q231.75-15.19 233.53-15.42Q235.30-15.64 236.57-15.98Q237.83-16.31 239.17-16.80Q240.50-17.30 241.38-18.02Q242.26-18.74 243-19.67Q243.74-20.60 244.09-21.87Q244.44-23.13 244.44-24.64Q244.44-27.25 242.84-29.25Q241.24-31.25 238.59-32.40Q235.93-33.54 232.80-34.12Q229.68-34.70 226.30-34.70Q223.66-34.70 220.99-34.33Q218.32-33.96 215.75-33.19Q213.19-32.41 211.31-31.03Q209.43-29.64 208.86-27.81M257.80-42.40Q257.80-41.62 258.26-41.40Q258.71-41.17 259.03-41.17Q259.35-41.17 259.80-41.40Q260.26-41.62 260.26-42.40Q260.26-44.54 262.37-46.16Q264.48-47.78 267.40-48.52Q270.32-49.25 273.34-49.25Q277.42-49.25 280.78-48.11Q284.13-46.97 286.29-44.44Q288.46-41.91 288.46-38.39L288.39-27.35Q285.36-31.32 282.27-33.01Q279.18-34.70 274.36-34.70Q266.70-34.70 262.25-29.62Q257.80-24.54 257.80-16.42Q257.80-8.33 262.20-3.23Q266.59 1.86 274.36 1.86Q278.93 1.86 282.62-0.09Q286.31-2.04 288.46-5.77Q289.09-1.93 291.48 1.23Q291.90 1.69 292.39 1.69Q292.57 1.69 293.01 1.58Q293.45 1.48 293.64 1.04Q293.84 0.60 293.84 0.35Q293.84 0 293.59-0.35Q290.99-3.55 290.99-7.95Q290.99-7.95 290.99-7.98Q290.99-7.98 290.99-8.02Q290.99-8.02 290.99-8.05Q290.99-8.05 290.99-8.05L290.99-8.09Q290.99-8.09 290.99-8.09L290.99-38.39Q290.99-41.62 289.55-44.23Q288.11-46.83 285.63-48.43Q283.15-50.03 280.02-50.87Q276.89-51.71 273.34-51.71Q269.44-51.71 265.96-50.68Q262.48-49.64 260.14-47.46Q257.80-45.28 257.80-42.40M260.33-16.42Q260.33-23.31 264.02-27.72Q267.71-32.13 274.36-32.13Q280.97-32.13 284.64-27.79Q288.32-23.45 288.32-16.42Q288.32-9.60 284.64-5.13Q280.97-0.67 274.36-0.67Q267.82-0.67 264.08-4.90Q260.33-9.14 260.33-16.42"/></svg>