<svg version="1.1" xmlns="http://www.w3.org/2000/svg" viewBox="0 0 217.44140625 74.49609375">
    <path fill="red" stroke="black"
        d="M7.21-43.77L7.21-2.95Q7.21-1.76 8.07-0.91Q8.93-0.07 10.16-0.07Q11.39-0.07 12.25-0.93Q13.11-1.79 13.11-3.02L13.11-17.93L17.86-14.84Q21.09-12.80 23.63-12.80L27.28-12.80Q30.90-12.80 33.50-15.38Q36.11-17.96 36.21-21.66L36.95-43.77Q36.98-45 36.11-45.86Q35.23-46.72 34-46.72Q32.77-46.72 31.92-45.83Q31.08-44.93 31.04-43.77L30.30-21.59Q30.27-20.39 29.39-19.51Q28.51-18.63 27.28-18.63L23.98-18.63Q22.85-18.63 21.52-19.51L13.11-25L13.11-43.77Q13.11-45 12.25-45.86Q11.39-46.72 10.16-46.72Q8.93-46.72 8.07-45.86Q7.21-45 7.21-43.77M80.51-23.91L80.51-31.04Q80.51-32.24 79.63-33.12Q78.75-34 77.55-34L56.67-34L56.67-35.72Q56.67-37.23 57.97-38.29L59.70-39.73Q61.10-40.82 62.37-40.82L77.55-40.82Q78.75-40.82 79.63-41.68Q80.51-42.54 80.51-43.77Q80.51-44.96 79.61-45.84Q78.71-46.72 77.55-46.72L61.98-46.72Q60.43-46.72 58.73-46.07Q57.02-45.42 56.21-44.72L53.58-42.40Q52.35-41.41 51.52-39.66Q50.70-37.90 50.70-36.42L50.70-22.89Q50.70-21.73 51.59-19.76Q52.49-17.79 53.86-16.70L56.32-14.77Q58.75-12.80 61.70-12.80L70-12.80Q73.13-12.80 75.90-15.40L78.12-17.51Q80.51-19.65 80.51-23.91M56.74-23.45L56.74-28.02L74.67-28.02L74.67-23.91Q74.67-22.25 73.65-21.37L71.93-19.86Q70.59-18.77 69.54-18.77L62.12-18.77Q60.75-18.77 59.63-19.72L57.90-21.16Q56.74-22.04 56.74-23.45M118.09-46.72L100.23-46.72Q99-46.72 98.14-45.83Q97.28-44.93 97.28-43.70Q97.28-42.50 98.14-41.62Q99-40.75 100.23-40.75L106.14-40.75L106.14-5.91L100.16-5.91Q98.93-5.91 98.07-5.04Q97.21-4.18 97.21-2.95Q97.21-1.72 98.07-0.86Q98.93 0 100.16 0L109.16 0Q110.36 0 111.23-0.88Q112.11-1.76 112.11-2.95L112.11-40.75L118.09-40.75Q119.29-40.75 120.16-41.62Q121.04-42.50 121.04-43.70Q121.04-44.93 120.18-45.83Q119.32-46.72 118.09-46.72M161.58-46.72L143.72-46.72Q142.49-46.72 141.63-45.83Q140.77-44.93 140.77-43.70Q140.77-42.50 141.63-41.62Q142.49-40.75 143.72-40.75L149.63-40.75L149.63-5.91L143.65-5.91Q142.42-5.91 141.56-5.04Q140.70-4.18 140.70-2.95Q140.70-1.72 141.56-0.86Q142.42 0 143.65 0L152.65 0Q153.84 0 154.72-0.88Q155.60-1.76 155.60-2.95L155.60-40.75L161.58-40.75Q162.77-40.75 163.65-41.62Q164.53-42.50 164.53-43.70Q164.53-44.93 163.67-45.83Q162.81-46.72 161.58-46.72M210.97-23.45L210.97-35.93Q210.97-39.90 207.23-43.28Q203.48-46.65 199.51-46.65L192.59-46.65Q188.54-46.65 184.85-43.22Q181.16-39.80 181.16-35.93L181.16-23.45Q181.16-19.58 184.76-16.15Q188.37-12.73 192.59-12.73L199.51-12.73Q203.48-12.66 207.23-16.03Q210.97-19.41 210.97-23.45M187.14-23.70L187.14-35.65Q187.14-37.27 188.30-38.21L190.51-40.11Q191.25-40.75 192.59-40.75L199.44-40.75Q200.95-40.75 202.18-39.66L203.98-38.07Q205.07-37.23 205.07-35.72L205.07-23.77Q205.07-22.01 203.98-21.16L201.90-19.51Q200.85-18.63 199.44-18.63L193.32-18.63Q191.32-18.63 190.23-19.58L188.23-21.30Q187.14-22.22 187.14-23.70" />
</svg>